<svg id="Layer_1" enable-background="new 0 0 512 512" height="512" viewBox="0 0 512 512" width="512" xmlns="http://www.w3.org/2000/svg"><g><path d="m447 62.07v410.65c0 17.55-14.26 31.78-31.84 31.78h-318.32c-17.58 0-31.84-14.23-31.84-31.78v-410.65c0-17.55 14.26-31.78 31.84-31.78h318.32c17.58 0 31.84 14.23 31.84 31.78z" fill="#4f667a"/><path d="m447 62.07v410.65c0 17.55-14.26 31.78-31.84 31.78h-26.76c17.59 0 31.85-14.23 31.85-31.78v-410.65c0-17.55-14.26-31.78-31.85-31.78h26.76c17.58 0 31.84 14.23 31.84 31.78z" fill="#3a5366"/><path d="m99.26 64.49h313.48v405.82h-313.48z" fill="#fff2d9"/><path d="m382.03 64.49h30.71v405.82h-30.71z" fill="#ffde8f"/><path d="m164.243 30.295h183.513v56.987h-183.513z" fill="#ffde8f"/><path d="m318.756 30.295h29v56.987h-29z" fill="#ffb651"/><path d="m216.028 7.5h79.944v45.59h-79.944z" fill="#ffb651"/><path d="m266.295 7.5h29.677v45.59h-29.677z" fill="#ff9827"/></g><g><path d="m447 124.101c4.143 0 7.5-3.357 7.5-7.5v-54.526c0-21.659-17.65-39.28-39.345-39.28h-111.683v-15.295c0-4.143-3.357-7.5-7.5-7.5h-79.944c-4.143 0-7.5 3.357-7.5 7.5v15.295h-111.683c-21.694 0-39.345 17.621-39.345 39.28v410.645c0 21.659 17.65 39.28 39.345 39.28h318.311c21.694 0 39.345-17.621 39.345-39.28v-316.643c0-4.143-3.357-7.5-7.5-7.5s-7.5 3.357-7.5 7.5v316.643c0 13.389-10.921 24.28-24.345 24.28h-318.311c-13.424 0-24.345-10.892-24.345-24.28v-410.645c0-13.389 10.921-24.28 24.345-24.28h59.898v19.192h-57.481c-4.143 0-7.5 3.357-7.5 7.5v324.094c0 4.143 3.357 7.5 7.5 7.5s7.5-3.357 7.5-7.5v-316.594h49.981v15.294c0 4.143 3.357 7.5 7.5 7.5h183.513c4.143 0 7.5-3.357 7.5-7.5v-15.294h49.982v390.82h-298.476v-34.879c0-4.143-3.357-7.5-7.5-7.5s-7.5 3.357-7.5 7.5v42.379c0 4.143 3.357 7.5 7.5 7.5h313.477c4.143 0 7.5-3.357 7.5-7.5v-405.82c0-4.143-3.357-7.5-7.5-7.5h-57.482v-19.192h59.899c13.424 0 24.345 10.892 24.345 24.28v54.525c-.001 4.143 3.356 7.501 7.499 7.501zm-223.473-109.101h64.944v30.59h-64.944zm116.729 64.781h-168.513v-41.986h36.784v15.295c0 4.143 3.357 7.5 7.5 7.5h79.944c4.143 0 7.5-3.357 7.5-7.5v-15.295h36.784v41.986z"/><path d="m140.401 285.152h237.329c4.143 0 7.5-3.357 7.5-7.5s-3.357-7.5-7.5-7.5h-237.329c-4.143 0-7.5 3.357-7.5 7.5s3.358 7.5 7.5 7.5z"/><path d="m140.401 330.152h217.329c4.143 0 7.5-3.357 7.5-7.5s-3.357-7.5-7.5-7.5h-217.329c-4.143 0-7.5 3.357-7.5 7.5s3.358 7.5 7.5 7.5z"/><path d="m140.401 375.081h237.329c4.143 0 7.5-3.357 7.5-7.5s-3.357-7.5-7.5-7.5h-237.329c-4.143 0-7.5 3.357-7.5 7.5s3.358 7.5 7.5 7.5z"/><path d="m377.73 423.081h-46.677c-4.143 0-7.5 3.357-7.5 7.5s3.357 7.5 7.5 7.5h46.677c4.143 0 7.5-3.357 7.5-7.5s-3.357-7.5-7.5-7.5z"/><path d="m269.295 423.081c-4.143 0-7.5 3.357-7.5 7.5s3.357 7.5 7.5 7.5h31.677c4.143 0 7.5-3.357 7.5-7.5s-3.357-7.5-7.5-7.5z"/><path d="m140.97 223.732c-4.143 0-7.5 3.357-7.5 7.5s3.357 7.5 7.5 7.5h67.447c20.271 0 38.019-11.006 47.583-27.356 9.564 16.35 27.312 27.356 47.582 27.356h67.448c4.143 0 7.5-3.357 7.5-7.5s-3.357-7.5-7.5-7.5h-9.137v-80.165h9.137c4.143 0 7.5-3.357 7.5-7.5s-3.357-7.5-7.5-7.5h-67.448c-20.27 0-38.018 11.006-47.582 27.357-9.564-16.35-27.312-27.357-47.583-27.357h-67.447c-4.143 0-7.5 3.357-7.5 7.5s3.357 7.5 7.5 7.5h9.059v80.165zm205.924 0h-15.405v-80.165h15.405zm-30.406-80.165v80.165h-12.906c-.84 0-1.673-.026-2.5-.077v-80.01c.827-.051 1.66-.077 2.5-.077h12.906zm-30.406 4.027v72.113c-13.357-6.509-22.582-20.225-22.582-36.056s9.225-29.548 22.582-36.057zm-37.582 36.056c0 15.861-9.261 29.6-22.66 36.094v-72.188c13.399 6.494 22.66 20.233 22.66 36.094zm-37.66-40.01v80.019c-.802.048-1.609.073-2.423.073h-12.983v-80.165h12.983c.813 0 1.621.025 2.423.073zm-45.812-.073h15.405v80.165h-15.405z"/></g></svg>
